<?xml version="1.0" encoding="UTF-8" standalone="no"?>
<!DOCTYPE svg PUBLIC "-//W3C//DTD SVG 1.1//EN"
 "http://www.w3.org/Graphics/SVG/1.1/DTD/svg11.dtd">
<!-- Generated by graphviz version 2.47.0 (20210316.0004)
 -->
<!-- Title: dependencies Pages: 1 -->
<svg width="841pt" height="284pt"
 viewBox="0.00 0.00 841.00 284.00" xmlns="http://www.w3.org/2000/svg" xmlns:xlink="http://www.w3.org/1999/xlink">
<g id="graph0" class="graph" transform="scale(1 1) rotate(0) translate(4 280)">
<title>dependencies</title>
<polygon fill="white" stroke="transparent" points="-4,4 -4,-280 837,-280 837,4 -4,4"/>
<text text-anchor="start" x="395.51" y="-42.4" font-family="Times-12" font-weight="bold" font-size="14.00">Legend</text>
<polygon fill="#ffffb3" stroke="transparent" points="182.5,-10 182.5,-30 202.5,-30 202.5,-10 182.5,-10"/>
<text text-anchor="start" x="206.13" y="-15.4" font-family="Times-12" font-size="14.00"> &#160;Declarations</text>
<polygon fill="#8dd3c7" stroke="transparent" points="295.5,-10 295.5,-30 315.5,-30 315.5,-10 295.5,-10"/>
<text text-anchor="start" x="319.23" y="-15.4" font-family="Times-12" font-size="14.00"> &#160;Module</text>
<polygon fill="#80b1d3" stroke="transparent" points="381.5,-10 381.5,-30 401.5,-30 401.5,-10 381.5,-10"/>
<text text-anchor="start" x="405.28" y="-15.4" font-family="Times-12" font-size="14.00"> &#160;Bootstrap</text>
<polygon fill="#fdb462" stroke="transparent" points="478.5,-10 478.5,-30 498.5,-30 498.5,-10 478.5,-10"/>
<text text-anchor="start" x="502.17" y="-15.4" font-family="Times-12" font-size="14.00"> &#160;Providers</text>
<polygon fill="#fb8072" stroke="transparent" points="574.5,-10 574.5,-30 594.5,-30 594.5,-10 574.5,-10"/>
<text text-anchor="start" x="598.23" y="-15.4" font-family="Times-12" font-size="14.00"> &#160;Exports</text>
<g id="clust1" class="cluster">
<title>cluster_AppModule</title>
<polygon fill="none" stroke="black" stroke-dasharray="1,5" points="8,-70 8,-268 825,-268 825,-70 8,-70"/>
</g>
<g id="clust2" class="cluster">
<title>cluster_AppModule_declarations</title>
<polygon fill="none" stroke="black" points="267,-78 267,-130 817,-130 817,-78 267,-78"/>
</g>
<g id="clust7" class="cluster">
<title>cluster_AppModule_imports</title>
<polygon fill="none" stroke="black" points="16,-78 16,-130 259,-130 259,-78 16,-78"/>
</g>
<g id="clust9" class="cluster">
<title>cluster_AppModule_bootstrap</title>
<polygon fill="none" stroke="black" points="354,-208 354,-260 478,-260 478,-208 354,-208"/>
</g>
<!-- AppComponent -->
<g id="node1" class="node">
<title>AppComponent</title>
<polygon fill="#ffffb3" stroke="black" points="808.94,-122 703.06,-122 703.06,-86 808.94,-86 808.94,-122"/>
<text text-anchor="middle" x="756" y="-99.8" font-family="Times,serif" font-size="14.00">AppComponent</text>
</g>
<!-- AppModule -->
<g id="node5" class="node">
<title>AppModule</title>
<polygon fill="#8dd3c7" stroke="black" points="457.66,-187 454.66,-191 433.66,-191 430.66,-187 374.34,-187 374.34,-151 457.66,-151 457.66,-187"/>
<text text-anchor="middle" x="416" y="-164.8" font-family="Times,serif" font-size="14.00">AppModule</text>
</g>
<!-- AppComponent&#45;&gt;AppModule -->
<g id="edge1" class="edge">
<title>AppComponent&#45;&gt;AppModule</title>
<path fill="none" stroke="black" d="M756,-122.28C756,-143.32 756,-175 756,-175 756,-175 467.69,-175 467.69,-175"/>
<polygon fill="black" stroke="black" points="467.69,-171.5 457.69,-175 467.69,-178.5 467.69,-171.5"/>
</g>
<!-- DetailsComponent -->
<g id="node2" class="node">
<title>DetailsComponent</title>
<polygon fill="#ffffb3" stroke="black" points="685.48,-122 564.52,-122 564.52,-86 685.48,-86 685.48,-122"/>
<text text-anchor="middle" x="625" y="-99.8" font-family="Times,serif" font-size="14.00">DetailsComponent</text>
</g>
<!-- DetailsComponent&#45;&gt;AppModule -->
<g id="edge2" class="edge">
<title>DetailsComponent&#45;&gt;AppModule</title>
<path fill="none" stroke="black" d="M625,-122.02C625,-139.37 625,-163 625,-163 625,-163 467.79,-163 467.79,-163"/>
<polygon fill="black" stroke="black" points="467.79,-159.5 457.79,-163 467.79,-166.5 467.79,-159.5"/>
</g>
<!-- HomeComponent -->
<g id="node3" class="node">
<title>HomeComponent</title>
<polygon fill="#ffffb3" stroke="black" points="546.55,-122 431.45,-122 431.45,-86 546.55,-86 546.55,-122"/>
<text text-anchor="middle" x="489" y="-99.8" font-family="Times,serif" font-size="14.00">HomeComponent</text>
</g>
<!-- HomeComponent&#45;&gt;AppModule -->
<g id="edge3" class="edge">
<title>HomeComponent&#45;&gt;AppModule</title>
<path fill="none" stroke="black" d="M444.53,-122.11C444.53,-122.11 444.53,-140.99 444.53,-140.99"/>
<polygon fill="black" stroke="black" points="441.03,-140.99 444.53,-150.99 448.03,-140.99 441.03,-140.99"/>
</g>
<!-- NotFoundComponent -->
<g id="node4" class="node">
<title>NotFoundComponent</title>
<polygon fill="#ffffb3" stroke="black" points="413.11,-122 274.89,-122 274.89,-86 413.11,-86 413.11,-122"/>
<text text-anchor="middle" x="344" y="-99.8" font-family="Times,serif" font-size="14.00">NotFoundComponent</text>
</g>
<!-- NotFoundComponent&#45;&gt;AppModule -->
<g id="edge4" class="edge">
<title>NotFoundComponent&#45;&gt;AppModule</title>
<path fill="none" stroke="black" d="M393.61,-122.11C393.61,-122.11 393.61,-140.99 393.61,-140.99"/>
<polygon fill="black" stroke="black" points="390.11,-140.99 393.61,-150.99 397.11,-140.99 390.11,-140.99"/>
</g>
<!-- AppComponent  -->
<g id="node8" class="node">
<title>AppComponent </title>
<polygon fill="#80b1d3" stroke="black" points="470.44,-252 361.56,-252 361.56,-216 470.44,-216 470.44,-252"/>
<text text-anchor="middle" x="416" y="-229.8" font-family="Times,serif" font-size="14.00">AppComponent </text>
</g>
<!-- AppModule&#45;&gt;AppComponent  -->
<g id="edge7" class="edge">
<title>AppModule&#45;&gt;AppComponent </title>
<path fill="none" stroke="black" stroke-dasharray="1,5" d="M416,-187.11C416,-187.11 416,-205.99 416,-205.99"/>
<polygon fill="black" stroke="black" points="412.5,-205.99 416,-215.99 419.5,-205.99 412.5,-205.99"/>
</g>
<!-- AppRoutingModule -->
<g id="node6" class="node">
<title>AppRoutingModule</title>
<polygon fill="#8dd3c7" stroke="black" points="251.27,-122 248.27,-126 227.27,-126 224.27,-122 122.73,-122 122.73,-86 251.27,-86 251.27,-122"/>
<text text-anchor="middle" x="187" y="-99.8" font-family="Times,serif" font-size="14.00">AppRoutingModule</text>
</g>
<!-- AppRoutingModule&#45;&gt;AppModule -->
<g id="edge5" class="edge">
<title>AppRoutingModule&#45;&gt;AppModule</title>
<path fill="none" stroke="black" d="M187,-122.02C187,-139.37 187,-163 187,-163 187,-163 364.26,-163 364.26,-163"/>
<polygon fill="black" stroke="black" points="364.26,-166.5 374.26,-163 364.26,-159.5 364.26,-166.5"/>
</g>
<!-- RouterLink -->
<g id="node7" class="node">
<title>RouterLink</title>
<polygon fill="#8dd3c7" stroke="black" points="104.05,-122 101.05,-126 80.05,-126 77.05,-122 23.95,-122 23.95,-86 104.05,-86 104.05,-122"/>
<text text-anchor="middle" x="64" y="-99.8" font-family="Times,serif" font-size="14.00">RouterLink</text>
</g>
<!-- RouterLink&#45;&gt;AppModule -->
<g id="edge6" class="edge">
<title>RouterLink&#45;&gt;AppModule</title>
<path fill="none" stroke="black" d="M64,-122.28C64,-143.32 64,-175 64,-175 64,-175 364.24,-175 364.24,-175"/>
<polygon fill="black" stroke="black" points="364.24,-178.5 374.24,-175 364.24,-171.5 364.24,-178.5"/>
</g>
</g>
</svg>
